# xmcd
#
# Track frame offsets: 
#        150
#        25137
#        46860
#        72237
#        95802
#        115935
#        136932
#        159760
#        190585
#        225320
#        253260
#        278660
#        302735
#
# Disc length: 4378 seconds
#
# Revision: 1
# Processed by: cddbd v1.5.2PL0 Copyright (c) Steve Scherf et al.
# Submitted via: ExactAudioCopyFreeDBPlugin 1.0
#
DISCID=a411180d
DTITLE=The Isley Brothers - Love Songs
DYEAR=2001
DGENRE=soul
TTITLE0=Hello It's Me
TTITLE1=Groove With You
TTITLE2=For The Love Of You (Part 1 and 2)
TTITLE3=Al lIn My Lover's Eyes
TTITLE4=VoyageTo Atlantis
TTITLE5=I Once Had All Your Love (And I Can't Let Go)
TTITLE6=Footsteps In The Dark (Part 1 and 2)
TTITLE7=Sensuality (Part 1 and 2)
TTITLE8=Make Me Say It Again Girl (Part 1 and 2)
TTITLE9=Summer Breeze
TTITLE10=Between The Sheets
TTITLE11=At Your Best You Are Love (Part 1 and 2)
TTITLE12=How Lucky I Am (Part 1 and 2)
EXTD=
EXTT0=
EXTT1=
EXTT2=
EXTT3=
EXTT4=
EXTT5=
EXTT6=
EXTT7=
EXTT8=
EXTT9=
EXTT10=
EXTT11=
EXTT12=
PLAYORDER=
